<?xml version="1.0" encoding="UTF-8"?>
<svg width="196px" height="69px" viewBox="0 0 196 69" version="1.1" xmlns="http://www.w3.org/2000/svg" xmlns:xlink="http://www.w3.org/1999/xlink">
    <!-- Generator: Sketch 51.3 (57544) - http://www.bohemiancoding.com/sketch -->
    <title>logo_black</title>
    <desc>Created with Sketch.</desc>
    <defs></defs>
    <g id="Page-1" stroke="none" stroke-width="1" fill="none" fill-rule="evenodd">
        <g id="Event-screen" transform="translate(-1571.000000, -48.000000)">
            <g id="logo_black" transform="translate(1571.000000, 48.000000)">
                <polyline id="Fill-1" fill="#2D2C30" points="65 17 71.5462205 17 85.9158564 39.9399837 85.9158564 17 93 17 93 52 86.5014361 52 72.0847393 29.2559982 72.0847393 52 65 52 65 17"></polyline>
                <path d="M108.501443,47.5410707 C110.394639,47.5410707 111.80761,46.8425403 112.739778,45.4460701 C113.669637,44.0495998 114.136587,42.0496654 114.136587,39.4492193 C114.136587,36.851135 113.669637,34.8677339 112.739778,33.5037397 C111.80761,32.1397454 110.394639,31.4577483 108.501443,31.4577483 C106.608247,31.4577483 105.195276,32.1397454 104.263685,33.5037397 C103.33094,34.8677339 102.866299,36.851135 102.866299,39.4492193 C102.866299,42.0821415 103.324591,44.0885711 104.240598,45.4690985 C105.154295,46.8502165 106.574193,47.5410707 108.501443,47.5410707 M108.501443,53 C104.524,53 101.44467,51.8308621 99.2674947,49.4902244 C97.0885877,47.1513581 96,43.8039627 96,39.4498097 C96,37.3713423 96.2926373,35.4942265 96.875026,33.822005 C97.4603006,32.149193 98.2972318,30.7344181 99.3858195,29.5812229 C100.47383,28.4286183 101.793873,27.5423173 103.337866,26.9252723 C104.884169,26.3082273 106.60767,26 108.501443,26 C110.426385,26 112.160852,26.3082273 113.709464,26.9252723 C115.256343,27.5423173 116.5735,28.4286183 117.664396,29.5812229 C118.752984,30.7344181 119.580103,32.149193 120.149216,33.822005 C120.716598,35.494817 121,37.3713423 121,39.4498097 C121,41.5631151 120.709671,43.4561737 120.124397,45.1289857 C119.539699,46.8035691 118.705077,48.2236583 117.616489,49.3927962 C116.525593,50.564296 115.208436,51.4570922 113.662134,52.0741373 C112.115831,52.6911823 110.394639,53 108.501443,53" id="Fill-2" fill="#2D2C30"></path>
                <path d="M125,26.0167441 L131.501068,26.0167441 L131.501068,30.2637771 C133.066615,25.866666 139.68188,25.9509728 140,26.0167441 L140,31.8117947 C139.452903,31.7998362 137.852981,31.5977389 135.838804,32.2112059 C133.803651,32.8288583 131.692756,34.2267977 131.692756,37.0950248 L131.692756,52 L125,52 L125,26.0167441" id="Fill-3" fill="#2D2C30"></path>
                <path d="M146.501715,32.6105845 L142.001715,32.6105845 L142,26.8355994 L146.501715,26.8355994 L146.501715,20 L153.064262,20 L153.064262,26.8355994 L158.691262,26.8355994 L158.691262,32.6105845 L153.064262,32.6105845 L153.064262,44.0485347 C153.064262,45.3945615 153.328867,46.302638 153.861506,46.7799144 C154.393574,47.2530199 155.080518,47.491956 155.925197,47.491956 C156.362967,47.491956 156.807023,47.4687178 157.261367,47.4192622 C157.714567,47.3680191 158.159195,47.2786415 158.596965,47.1475543 L160,52.0591517 C159.093028,52.3540978 157.743713,52.7122041 156.88589,52.8266074 C156.024067,52.9416066 155.204534,53 154.425006,53 C151.73495,53 149.74384,52.3284762 148.445961,50.9848329 C147.150368,49.6388061 146.501715,47.3775527 146.501715,44.1986891 L146.501715,32.6105845" id="Fill-4" fill="#2D2C30"></path>
                <path d="M178.44961,40.9467678 L175.442641,41.0939974 C174.018412,41.1593008 172.867436,41.3059367 171.996811,41.5344987 C171.123229,41.7636544 170.451925,42.0480211 169.982308,42.3905673 C169.515056,42.7337071 169.196852,43.1368074 169.035976,43.5921504 C168.873917,44.0510554 168.794661,44.5550792 168.794661,45.1131266 C168.794661,45.9614776 169.085067,46.6287599 169.668244,47.1185356 C170.249055,47.610686 171.057577,47.8558707 172.094402,47.8558707 C173.839792,47.8558707 175.264021,47.4474274 176.362949,46.6287599 C176.978656,46.1740106 177.478438,45.5934037 177.866434,44.891095 C178.25443,44.1887863 178.44961,43.3172823 178.44961,42.2694591 L178.44961,40.9467678 Z M178.596292,49.1281003 C177.592589,50.273285 176.467637,51.2041557 175.222028,51.9224934 C173.97701,52.6408311 172.366472,53 170.395736,53 C169.264279,53 168.188418,52.8527704 167.168154,52.5594987 C166.150256,52.2650396 165.260704,51.8079156 164.500681,51.187533 C163.740659,50.5677441 163.132049,49.7746042 162.680767,48.8087071 C162.227711,47.848153 162,46.6958443 162,45.357124 C162,43.5909631 162.387996,42.1548813 163.166945,41.044723 C163.940571,39.933971 164.960835,39.0689974 166.222414,38.4462401 C167.483992,37.8258575 168.899349,37.3847625 170.467894,37.1235488 C172.035847,36.8629288 173.628051,36.6990765 175.245095,36.6337731 L178.49811,36.4865435 L178.49811,35.210752 C178.49811,33.6434697 178.06812,32.5659631 177.211099,31.9782322 C176.354077,31.3905013 175.345051,31.0966359 174.178697,31.0966359 C171.494664,31.0966359 169.958649,32.1254617 169.570653,34.1819261 L163.35976,33.5947889 C163.812817,30.9167546 164.977396,28.9813984 166.852316,27.789314 C168.727827,26.5972296 171.250984,26 174.422378,26 C176.362949,26 178.013115,26.2380607 179.369918,26.7112137 C180.729087,27.1849604 181.821508,27.8611478 182.646,28.7427441 C183.471083,29.626715 184.068455,30.6953166 184.442256,31.9544855 C184.814282,33.2112797 185,34.6230211 185,36.1926781 L185,52.3624011 L178.596292,52.3624011 L178.596292,49.1281003 Z" id="Fill-5" fill="#2D2C30"></path>
                <polygon id="Fill-6" fill="#2D2C30" points="189 52 196 52 196 17 189 17"></polygon>
                <path d="M1.5,67 C0.671887714,67 0,66.3484785 0,65.545468 L0,4.45453201 C0,3.6509297 0.671887714,3 1.5,3 C2.32811229,3 3,3.6509297 3,4.45453201 L3,65.545468 C3,66.3484785 2.32811229,67 1.5,67" id="Fill-7" fill="#009639"></path>
                <path d="M13.5,67 C12.6718877,67 12,66.3484785 12,65.545468 L12,4.45453201 C12,3.6509297 12.6718877,3 13.5,3 C14.3287225,3 15,3.6509297 15,4.45453201 L15,65.545468 C15,66.3484785 14.3287225,67 13.5,67" id="Fill-8" fill="#009639"></path>
                <path d="M18.5,47 C17.6718877,47 17,46.3467758 17,45.5416667 L17,13.4589266 C17,12.6532242 17.6718877,12 18.5,12 C19.3281123,12 20,12.6532242 20,13.4589266 L20,45.5416667 C20,46.3467758 19.3281123,47 18.5,47" id="Fill-9" fill="#009639"></path>
                <path d="M30.5,58 C29.6712775,58 29,57.3467758 29,56.5416667 L29,24.4589266 C29,23.6532242 29.6712775,23 30.5,23 C31.3281123,23 32,23.6532242 32,24.4589266 L32,56.5416667 C32,57.3467758 31.3281123,58 30.5,58" id="Fill-10" fill="#009639"></path>
                <path d="M24.5,52 C23.6718877,52 23,51.3467758 23,50.5416667 L23,18.4583333 C23,17.6532242 23.6718877,17 24.5,17 C25.3287225,17 26,17.6532242 26,18.4583333 L26,50.5416667 C26,51.3467758 25.3287225,52 24.5,52" id="Fill-11" fill="#009639"></path>
                <path d="M36.5,67 C35.6718877,67 35,66.3484785 35,65.545468 L35,4.45453201 C35,3.6509297 35.6718877,3 36.5,3 C37.3287225,3 38,3.6509297 38,4.45453201 L38,65.545468 C38,66.3484785 37.3287225,67 36.5,67" id="Fill-12" fill="#009639"></path>
                <path d="M47.5,67 C46.6718877,67 46,66.3484785 46,65.545468 L46,4.45453201 C46,3.6509297 46.6718877,3 47.5,3 C48.3281123,3 49,3.6509297 49,4.45453201 L49,65.545468 C49,66.3484785 48.3281123,67 47.5,67" id="Fill-13" fill="#009639"></path>
                <path d="M41.5,69 C40.6712775,69 40,68.356124 40,67.5625366 L40,1.43746345 C40,0.64329121 40.6712775,0 41.5,0 C42.3281123,0 43,0.64329121 43,1.43746345 L43,67.5625366 C43,68.356124 42.3281123,69 41.5,69" id="Fill-14" fill="#009639"></path>
                <path d="M7.5,69 C6.67188771,69 6,68.356124 6,67.5625366 L6,1.43746345 C6,0.64329121 6.67188771,0 7.5,0 C8.32811229,0 9,0.64329121 9,1.43746345 L9,67.5625366 C9,68.356124 8.32811229,69 7.5,69" id="Fill-15" fill="#009639"></path>
            </g>
        </g>
    </g>
</svg>